<mxfile host="app.diagrams.net" modified="2021-01-05T07:46:27.798Z" agent="5.0 (Windows NT 10.0; Win64; x64) AppleWebKit/537.36 (KHTML, like Gecko) Chrome/87.0.4280.88 Safari/537.36" etag="uj47n_bI0fRbk6VoVZoy" version="14.1.6" type="github">
  <diagram name="Page-1" id="c4acf3e9-155e-7222-9cf6-157b1a14988f">
    <mxGraphModel dx="1016" dy="544" grid="1" gridSize="10" guides="1" tooltips="1" connect="1" arrows="1" fold="1" page="1" pageScale="1" pageWidth="850" pageHeight="1100" background="#ffffff" math="0" shadow="0">
      <root>
        <mxCell id="0" />
        <mxCell id="1" parent="0" />
        <mxCell id="gz2w7ovaBJwmbWw7ZP7a-2" value="client1" style="rounded=1;whiteSpace=wrap;html=1;" vertex="1" parent="1">
          <mxGeometry x="150" y="220" width="60" height="90" as="geometry" />
        </mxCell>
        <mxCell id="gz2w7ovaBJwmbWw7ZP7a-3" value="&lt;span&gt;client2&lt;/span&gt;" style="rounded=1;whiteSpace=wrap;html=1;" vertex="1" parent="1">
          <mxGeometry x="150" y="430" width="60" height="50" as="geometry" />
        </mxCell>
        <mxCell id="gz2w7ovaBJwmbWw7ZP7a-4" value="" style="endArrow=classic;html=1;exitX=1;exitY=0.5;exitDx=0;exitDy=0;entryX=0;entryY=0.5;entryDx=0;entryDy=0;fillColor=#f8cecc;strokeColor=#b85450;" edge="1" parent="1" source="gz2w7ovaBJwmbWw7ZP7a-2" target="gz2w7ovaBJwmbWw7ZP7a-10">
          <mxGeometry width="50" height="50" relative="1" as="geometry">
            <mxPoint x="400" y="320" as="sourcePoint" />
            <mxPoint x="350" y="305" as="targetPoint" />
          </mxGeometry>
        </mxCell>
        <mxCell id="gz2w7ovaBJwmbWw7ZP7a-5" value="" style="endArrow=classic;html=1;exitX=1;exitY=0.5;exitDx=0;exitDy=0;entryX=0;entryY=0.5;entryDx=0;entryDy=0;fillColor=#dae8fc;strokeColor=#6c8ebf;" edge="1" parent="1" source="gz2w7ovaBJwmbWw7ZP7a-3" target="gz2w7ovaBJwmbWw7ZP7a-11">
          <mxGeometry width="50" height="50" relative="1" as="geometry">
            <mxPoint x="210" y="450" as="sourcePoint" />
            <mxPoint x="350" y="415" as="targetPoint" />
          </mxGeometry>
        </mxCell>
        <mxCell id="gz2w7ovaBJwmbWw7ZP7a-10" value="enp11s0" style="rounded=0;whiteSpace=wrap;html=1;" vertex="1" parent="1">
          <mxGeometry x="350" y="235" width="60" height="60" as="geometry" />
        </mxCell>
        <mxCell id="gz2w7ovaBJwmbWw7ZP7a-11" value="enp12s0" style="rounded=0;whiteSpace=wrap;html=1;" vertex="1" parent="1">
          <mxGeometry x="350" y="425" width="60" height="60" as="geometry" />
        </mxCell>
        <mxCell id="gz2w7ovaBJwmbWw7ZP7a-12" value="" style="rounded=0;whiteSpace=wrap;html=1;" vertex="1" parent="1">
          <mxGeometry x="410" y="70" width="430" height="500" as="geometry" />
        </mxCell>
        <mxCell id="gz2w7ovaBJwmbWw7ZP7a-13" value="enp13s0" style="rounded=0;whiteSpace=wrap;html=1;" vertex="1" parent="1">
          <mxGeometry x="840" y="290" width="60" height="60" as="geometry" />
        </mxCell>
        <mxCell id="gz2w7ovaBJwmbWw7ZP7a-14" value="server" style="rounded=1;whiteSpace=wrap;html=1;" vertex="1" parent="1">
          <mxGeometry x="940" y="295" width="60" height="50" as="geometry" />
        </mxCell>
        <mxCell id="gz2w7ovaBJwmbWw7ZP7a-15" value="" style="endArrow=classic;html=1;exitX=1;exitY=0.5;exitDx=0;exitDy=0;entryX=0;entryY=0.5;entryDx=0;entryDy=0;" edge="1" parent="1" target="gz2w7ovaBJwmbWw7ZP7a-14">
          <mxGeometry width="50" height="50" relative="1" as="geometry">
            <mxPoint x="900" y="320" as="sourcePoint" />
            <mxPoint x="1040" y="360" as="targetPoint" />
          </mxGeometry>
        </mxCell>
        <mxCell id="gz2w7ovaBJwmbWw7ZP7a-16" value="流标识设计：&lt;br&gt;1、先用priority&lt;br&gt;2、后期采用802.1CB表示方法扩充" style="text;html=1;strokeColor=none;fillColor=none;align=left;verticalAlign=middle;whiteSpace=wrap;rounded=0;" vertex="1" parent="1">
          <mxGeometry x="130" y="150" width="180" height="80" as="geometry" />
        </mxCell>
        <mxCell id="gz2w7ovaBJwmbWw7ZP7a-17" value="ip: 10.1.0.4&lt;br&gt;mac: ?" style="text;html=1;strokeColor=none;fillColor=none;align=left;verticalAlign=middle;whiteSpace=wrap;rounded=0;" vertex="1" parent="1">
          <mxGeometry x="150" y="300" width="180" height="80" as="geometry" />
        </mxCell>
        <mxCell id="gz2w7ovaBJwmbWw7ZP7a-18" value="ip: 10.2.0.4&lt;br&gt;mac: ?" style="text;html=1;strokeColor=none;fillColor=none;align=left;verticalAlign=middle;whiteSpace=wrap;rounded=0;" vertex="1" parent="1">
          <mxGeometry x="150" y="470" width="180" height="80" as="geometry" />
        </mxCell>
        <mxCell id="gz2w7ovaBJwmbWw7ZP7a-20" value="group0" style="rounded=0;whiteSpace=wrap;html=1;" vertex="1" parent="1">
          <mxGeometry x="750" y="80" width="60" height="60" as="geometry" />
        </mxCell>
        <mxCell id="gz2w7ovaBJwmbWw7ZP7a-21" value="group6" style="rounded=0;whiteSpace=wrap;html=1;" vertex="1" parent="1">
          <mxGeometry x="750" y="440" width="60" height="60" as="geometry" />
        </mxCell>
        <mxCell id="gz2w7ovaBJwmbWw7ZP7a-22" value="scheduler0" style="rounded=0;whiteSpace=wrap;html=1;" vertex="1" parent="1">
          <mxGeometry x="590" y="90" width="100" height="40" as="geometry" />
        </mxCell>
        <mxCell id="gz2w7ovaBJwmbWw7ZP7a-24" value="" style="endArrow=classic;html=1;exitX=1;exitY=0.5;exitDx=0;exitDy=0;" edge="1" parent="1">
          <mxGeometry width="50" height="50" relative="1" as="geometry">
            <mxPoint x="410" y="264.64" as="sourcePoint" />
            <mxPoint x="440" y="265" as="targetPoint" />
          </mxGeometry>
        </mxCell>
        <mxCell id="gz2w7ovaBJwmbWw7ZP7a-25" value="" style="endArrow=classic;html=1;exitX=1;exitY=0.5;exitDx=0;exitDy=0;" edge="1" parent="1">
          <mxGeometry width="50" height="50" relative="1" as="geometry">
            <mxPoint x="410" y="454.8200000000001" as="sourcePoint" />
            <mxPoint x="440" y="455.18" as="targetPoint" />
          </mxGeometry>
        </mxCell>
        <mxCell id="gz2w7ovaBJwmbWw7ZP7a-26" value="switch" style="rounded=0;whiteSpace=wrap;html=1;horizontal=0;" vertex="1" parent="1">
          <mxGeometry x="440" y="80" width="30" height="480" as="geometry" />
        </mxCell>
        <mxCell id="gz2w7ovaBJwmbWw7ZP7a-33" value="ip: 10.3.0.4&lt;br&gt;mac: ?" style="text;html=1;strokeColor=none;fillColor=none;align=left;verticalAlign=middle;whiteSpace=wrap;rounded=0;" vertex="1" parent="1">
          <mxGeometry x="940" y="220" width="180" height="80" as="geometry" />
        </mxCell>
        <mxCell id="gz2w7ovaBJwmbWw7ZP7a-34" value="group1" style="rounded=0;whiteSpace=wrap;html=1;" vertex="1" parent="1">
          <mxGeometry x="750" y="140" width="60" height="60" as="geometry" />
        </mxCell>
        <mxCell id="gz2w7ovaBJwmbWw7ZP7a-35" value="group2" style="rounded=0;whiteSpace=wrap;html=1;" vertex="1" parent="1">
          <mxGeometry x="750" y="200" width="60" height="60" as="geometry" />
        </mxCell>
        <mxCell id="gz2w7ovaBJwmbWw7ZP7a-36" value="group3" style="rounded=0;whiteSpace=wrap;html=1;" vertex="1" parent="1">
          <mxGeometry x="750" y="260" width="60" height="60" as="geometry" />
        </mxCell>
        <mxCell id="gz2w7ovaBJwmbWw7ZP7a-37" value="group4" style="rounded=0;whiteSpace=wrap;html=1;" vertex="1" parent="1">
          <mxGeometry x="750" y="320" width="60" height="60" as="geometry" />
        </mxCell>
        <mxCell id="gz2w7ovaBJwmbWw7ZP7a-38" value="group5" style="rounded=0;whiteSpace=wrap;html=1;" vertex="1" parent="1">
          <mxGeometry x="750" y="380" width="60" height="60" as="geometry" />
        </mxCell>
        <mxCell id="gz2w7ovaBJwmbWw7ZP7a-39" value="group7" style="rounded=0;whiteSpace=wrap;html=1;" vertex="1" parent="1">
          <mxGeometry x="750" y="500" width="60" height="60" as="geometry" />
        </mxCell>
        <mxCell id="gz2w7ovaBJwmbWw7ZP7a-40" value="" style="shape=flexArrow;endArrow=classic;html=1;exitX=1;exitY=0;exitDx=0;exitDy=0;entryX=0;entryY=0.5;entryDx=0;entryDy=0;" edge="1" parent="1" source="gz2w7ovaBJwmbWw7ZP7a-37" target="gz2w7ovaBJwmbWw7ZP7a-13">
          <mxGeometry width="50" height="50" relative="1" as="geometry">
            <mxPoint x="830" y="312.5" as="sourcePoint" />
            <mxPoint x="860" y="327.5" as="targetPoint" />
          </mxGeometry>
        </mxCell>
        <mxCell id="gz2w7ovaBJwmbWw7ZP7a-41" value="ip: 10.1.0.5&lt;br&gt;mac: 00:30:64:42:40:b9" style="text;html=1;strokeColor=none;fillColor=none;align=right;verticalAlign=middle;whiteSpace=wrap;rounded=0;" vertex="1" parent="1">
          <mxGeometry x="220" y="280" width="180" height="80" as="geometry" />
        </mxCell>
        <mxCell id="gz2w7ovaBJwmbWw7ZP7a-42" value="scheduler1" style="rounded=0;whiteSpace=wrap;html=1;" vertex="1" parent="1">
          <mxGeometry x="590" y="150" width="100" height="40" as="geometry" />
        </mxCell>
        <mxCell id="gz2w7ovaBJwmbWw7ZP7a-43" value="scheduler2" style="rounded=0;whiteSpace=wrap;html=1;" vertex="1" parent="1">
          <mxGeometry x="590" y="210" width="100" height="40" as="geometry" />
        </mxCell>
        <mxCell id="gz2w7ovaBJwmbWw7ZP7a-44" value="scheduler3" style="rounded=0;whiteSpace=wrap;html=1;" vertex="1" parent="1">
          <mxGeometry x="590" y="270" width="100" height="40" as="geometry" />
        </mxCell>
        <mxCell id="gz2w7ovaBJwmbWw7ZP7a-45" value="scheduler4" style="rounded=0;whiteSpace=wrap;html=1;" vertex="1" parent="1">
          <mxGeometry x="590" y="330" width="100" height="40" as="geometry" />
        </mxCell>
        <mxCell id="gz2w7ovaBJwmbWw7ZP7a-46" value="scheduler5" style="rounded=0;whiteSpace=wrap;html=1;" vertex="1" parent="1">
          <mxGeometry x="590" y="390" width="100" height="40" as="geometry" />
        </mxCell>
        <mxCell id="gz2w7ovaBJwmbWw7ZP7a-47" value="scheduler6" style="rounded=0;whiteSpace=wrap;html=1;" vertex="1" parent="1">
          <mxGeometry x="590" y="450" width="100" height="40" as="geometry" />
        </mxCell>
        <mxCell id="gz2w7ovaBJwmbWw7ZP7a-48" value="scheduler7" style="rounded=0;whiteSpace=wrap;html=1;" vertex="1" parent="1">
          <mxGeometry x="590" y="510" width="100" height="40" as="geometry" />
        </mxCell>
        <mxCell id="gz2w7ovaBJwmbWw7ZP7a-49" value="" style="endArrow=classic;html=1;exitX=1;exitY=0.5;exitDx=0;exitDy=0;entryX=0;entryY=0.5;entryDx=0;entryDy=0;" edge="1" parent="1" source="gz2w7ovaBJwmbWw7ZP7a-22" target="gz2w7ovaBJwmbWw7ZP7a-20">
          <mxGeometry width="50" height="50" relative="1" as="geometry">
            <mxPoint x="700" y="109.56999999999988" as="sourcePoint" />
            <mxPoint x="740" y="109.56999999999988" as="targetPoint" />
          </mxGeometry>
        </mxCell>
        <mxCell id="gz2w7ovaBJwmbWw7ZP7a-50" value="" style="endArrow=classic;html=1;exitX=1;exitY=0.5;exitDx=0;exitDy=0;entryX=0;entryY=0.5;entryDx=0;entryDy=0;" edge="1" parent="1">
          <mxGeometry width="50" height="50" relative="1" as="geometry">
            <mxPoint x="690" y="169.86" as="sourcePoint" />
            <mxPoint x="750" y="169.86" as="targetPoint" />
          </mxGeometry>
        </mxCell>
        <mxCell id="gz2w7ovaBJwmbWw7ZP7a-51" value="" style="endArrow=classic;html=1;exitX=1;exitY=0.5;exitDx=0;exitDy=0;entryX=0;entryY=0.5;entryDx=0;entryDy=0;" edge="1" parent="1">
          <mxGeometry width="50" height="50" relative="1" as="geometry">
            <mxPoint x="690" y="229.86" as="sourcePoint" />
            <mxPoint x="750" y="229.86" as="targetPoint" />
          </mxGeometry>
        </mxCell>
        <mxCell id="gz2w7ovaBJwmbWw7ZP7a-52" value="" style="endArrow=classic;html=1;exitX=1;exitY=0.5;exitDx=0;exitDy=0;entryX=0;entryY=0.5;entryDx=0;entryDy=0;" edge="1" parent="1">
          <mxGeometry width="50" height="50" relative="1" as="geometry">
            <mxPoint x="690" y="290" as="sourcePoint" />
            <mxPoint x="750" y="290" as="targetPoint" />
          </mxGeometry>
        </mxCell>
        <mxCell id="gz2w7ovaBJwmbWw7ZP7a-53" value="" style="endArrow=classic;html=1;exitX=1;exitY=0.5;exitDx=0;exitDy=0;entryX=0;entryY=0.5;entryDx=0;entryDy=0;" edge="1" parent="1">
          <mxGeometry width="50" height="50" relative="1" as="geometry">
            <mxPoint x="690" y="350" as="sourcePoint" />
            <mxPoint x="750" y="350" as="targetPoint" />
          </mxGeometry>
        </mxCell>
        <mxCell id="gz2w7ovaBJwmbWw7ZP7a-54" value="" style="endArrow=classic;html=1;exitX=1;exitY=0.5;exitDx=0;exitDy=0;entryX=0;entryY=0.5;entryDx=0;entryDy=0;" edge="1" parent="1">
          <mxGeometry width="50" height="50" relative="1" as="geometry">
            <mxPoint x="690" y="409.86" as="sourcePoint" />
            <mxPoint x="750" y="409.86" as="targetPoint" />
          </mxGeometry>
        </mxCell>
        <mxCell id="gz2w7ovaBJwmbWw7ZP7a-55" value="" style="endArrow=classic;html=1;exitX=1;exitY=0.5;exitDx=0;exitDy=0;entryX=0;entryY=0.5;entryDx=0;entryDy=0;" edge="1" parent="1">
          <mxGeometry width="50" height="50" relative="1" as="geometry">
            <mxPoint x="690" y="470" as="sourcePoint" />
            <mxPoint x="750" y="470" as="targetPoint" />
          </mxGeometry>
        </mxCell>
        <mxCell id="gz2w7ovaBJwmbWw7ZP7a-56" value="" style="endArrow=classic;html=1;exitX=1;exitY=0.5;exitDx=0;exitDy=0;entryX=0;entryY=0.5;entryDx=0;entryDy=0;" edge="1" parent="1">
          <mxGeometry width="50" height="50" relative="1" as="geometry">
            <mxPoint x="690" y="529.86" as="sourcePoint" />
            <mxPoint x="750" y="529.86" as="targetPoint" />
          </mxGeometry>
        </mxCell>
        <mxCell id="gz2w7ovaBJwmbWw7ZP7a-57" value="ip: 10.2.0.5&lt;br&gt;mac: 00:30:64:42:40:ba" style="text;html=1;strokeColor=none;fillColor=none;align=right;verticalAlign=middle;whiteSpace=wrap;rounded=0;" vertex="1" parent="1">
          <mxGeometry x="220" y="470" width="180" height="80" as="geometry" />
        </mxCell>
        <mxCell id="gz2w7ovaBJwmbWw7ZP7a-58" value="ip: 10.3.0.5&lt;br&gt;mac: 00:30:64:42:40:bb" style="text;html=1;strokeColor=none;fillColor=none;align=left;verticalAlign=middle;whiteSpace=wrap;rounded=0;" vertex="1" parent="1">
          <mxGeometry x="850" y="340" width="180" height="80" as="geometry" />
        </mxCell>
        <mxCell id="gz2w7ovaBJwmbWw7ZP7a-59" value="priority0" style="text;html=1;strokeColor=none;fillColor=none;align=left;verticalAlign=middle;whiteSpace=wrap;rounded=0;" vertex="1" parent="1">
          <mxGeometry x="700" y="80" width="50" height="80" as="geometry" />
        </mxCell>
        <mxCell id="gz2w7ovaBJwmbWw7ZP7a-60" value="priority1" style="text;html=1;strokeColor=none;fillColor=none;align=left;verticalAlign=middle;whiteSpace=wrap;rounded=0;" vertex="1" parent="1">
          <mxGeometry x="700" y="140" width="50" height="80" as="geometry" />
        </mxCell>
        <mxCell id="gz2w7ovaBJwmbWw7ZP7a-61" value="priority2" style="text;html=1;strokeColor=none;fillColor=none;align=left;verticalAlign=middle;whiteSpace=wrap;rounded=0;" vertex="1" parent="1">
          <mxGeometry x="700" y="200" width="50" height="80" as="geometry" />
        </mxCell>
        <mxCell id="gz2w7ovaBJwmbWw7ZP7a-62" value="priority3" style="text;html=1;strokeColor=none;fillColor=none;align=left;verticalAlign=middle;whiteSpace=wrap;rounded=0;" vertex="1" parent="1">
          <mxGeometry x="700" y="260" width="50" height="80" as="geometry" />
        </mxCell>
        <mxCell id="gz2w7ovaBJwmbWw7ZP7a-63" value="priority4" style="text;html=1;strokeColor=none;fillColor=none;align=left;verticalAlign=middle;whiteSpace=wrap;rounded=0;" vertex="1" parent="1">
          <mxGeometry x="700" y="320" width="50" height="80" as="geometry" />
        </mxCell>
        <mxCell id="gz2w7ovaBJwmbWw7ZP7a-64" value="priority5" style="text;html=1;strokeColor=none;fillColor=none;align=left;verticalAlign=middle;whiteSpace=wrap;rounded=0;" vertex="1" parent="1">
          <mxGeometry x="700" y="380" width="50" height="80" as="geometry" />
        </mxCell>
        <mxCell id="gz2w7ovaBJwmbWw7ZP7a-65" value="priority6" style="text;html=1;strokeColor=none;fillColor=none;align=left;verticalAlign=middle;whiteSpace=wrap;rounded=0;" vertex="1" parent="1">
          <mxGeometry x="700" y="440" width="50" height="80" as="geometry" />
        </mxCell>
        <mxCell id="gz2w7ovaBJwmbWw7ZP7a-66" value="priority7" style="text;html=1;strokeColor=none;fillColor=none;align=left;verticalAlign=middle;whiteSpace=wrap;rounded=0;" vertex="1" parent="1">
          <mxGeometry x="700" y="500" width="50" height="80" as="geometry" />
        </mxCell>
        <mxCell id="gz2w7ovaBJwmbWw7ZP7a-67" value="" style="endArrow=classic;html=1;exitX=1;exitY=0.5;exitDx=0;exitDy=0;entryX=0;entryY=0.5;entryDx=0;entryDy=0;fillColor=#d5e8d4;strokeColor=#82b366;" edge="1" parent="1">
          <mxGeometry width="50" height="50" relative="1" as="geometry">
            <mxPoint x="210" y="280" as="sourcePoint" />
            <mxPoint x="350" y="280" as="targetPoint" />
          </mxGeometry>
        </mxCell>
      </root>
    </mxGraphModel>
  </diagram>
</mxfile>
